<svg xmlns="http://www.w3.org/2000/svg" viewBox="0 0 24 24">
  <path fill="#3776AB" d="M11.914 0C5.82 0 6.2 2.656 6.2 2.656l.007 2.752h5.814v.826H3.9S0 5.789 0 11.969c0 6.18 3.403 5.963 3.403 5.963h2.031v-2.867s-.109-3.402 3.35-3.402h5.766s3.24.052 3.24-3.13V3.13S18.28 0 11.914 0zm-3.2 1.812a1.047 1.047 0 110 2.094 1.047 1.047 0 010-2.094z"/>
  <path fill="#FFC331" d="M12.086 24c6.094 0 5.714-2.656 5.714-2.656l-.007-2.752h-5.814v-.826h8.121S24 18.211 24 12.031c0-6.18-3.403-5.963-3.403-5.963h-2.031v2.867s.109 3.402-3.35 3.402H9.45s-3.24-.052-3.24 3.13v5.403S5.72 24 12.086 24zm3.2-1.812a1.047 1.047 0 110-2.094 1.047 1.047 0 010 2.094z"/>
</svg>
